<mxfile host="app.diagrams.net" modified="2023-09-28T14:33:22.352Z" agent="Mozilla/5.0 (Macintosh; Intel Mac OS X 10_15_7) AppleWebKit/537.36 (KHTML, like Gecko) Chrome/117.0.0.0 Safari/537.36" etag="MTfG_Ed9XtVxgCJ4VtkI" version="22.0.0" type="github">
  <diagram id="C5RBs43oDa-KdzZeNtuy" name="Page-1">
    <mxGraphModel dx="1174" dy="682" grid="1" gridSize="10" guides="1" tooltips="1" connect="1" arrows="1" fold="1" page="1" pageScale="1" pageWidth="827" pageHeight="1169" math="0" shadow="0">
      <root>
        <mxCell id="WIyWlLk6GJQsqaUBKTNV-0" />
        <mxCell id="WIyWlLk6GJQsqaUBKTNV-1" parent="WIyWlLk6GJQsqaUBKTNV-0" />
        <mxCell id="xI0BXQAsPgEZDhIt_W3Y-33" value="CLIENTE" style="text;html=1;align=center;verticalAlign=middle;resizable=0;points=[];autosize=1;strokeColor=none;fillColor=none;" vertex="1" parent="WIyWlLk6GJQsqaUBKTNV-1">
          <mxGeometry x="195" y="70" width="70" height="30" as="geometry" />
        </mxCell>
        <mxCell id="xI0BXQAsPgEZDhIt_W3Y-40" value="SÍ" style="edgeStyle=orthogonalEdgeStyle;rounded=0;orthogonalLoop=1;jettySize=auto;html=1;" edge="1" parent="WIyWlLk6GJQsqaUBKTNV-1" source="xI0BXQAsPgEZDhIt_W3Y-35" target="xI0BXQAsPgEZDhIt_W3Y-39">
          <mxGeometry relative="1" as="geometry" />
        </mxCell>
        <mxCell id="xI0BXQAsPgEZDhIt_W3Y-64" value="NO" style="edgeStyle=orthogonalEdgeStyle;rounded=0;orthogonalLoop=1;jettySize=auto;html=1;" edge="1" parent="WIyWlLk6GJQsqaUBKTNV-1" source="xI0BXQAsPgEZDhIt_W3Y-35">
          <mxGeometry relative="1" as="geometry">
            <mxPoint x="330" y="150" as="targetPoint" />
          </mxGeometry>
        </mxCell>
        <mxCell id="xI0BXQAsPgEZDhIt_W3Y-35" value="CUENTA NUEVA?" style="rhombus;whiteSpace=wrap;html=1;" vertex="1" parent="WIyWlLk6GJQsqaUBKTNV-1">
          <mxGeometry x="190" y="110" width="80" height="80" as="geometry" />
        </mxCell>
        <mxCell id="xI0BXQAsPgEZDhIt_W3Y-46" value="" style="edgeStyle=orthogonalEdgeStyle;rounded=0;orthogonalLoop=1;jettySize=auto;html=1;" edge="1" parent="WIyWlLk6GJQsqaUBKTNV-1" source="xI0BXQAsPgEZDhIt_W3Y-39" target="xI0BXQAsPgEZDhIt_W3Y-45">
          <mxGeometry relative="1" as="geometry" />
        </mxCell>
        <mxCell id="xI0BXQAsPgEZDhIt_W3Y-39" value="USUARIO = input()&lt;br&gt;envías USUARIO a servidor" style="rounded=1;whiteSpace=wrap;html=1;" vertex="1" parent="WIyWlLk6GJQsqaUBKTNV-1">
          <mxGeometry x="170" y="280" width="120" height="60" as="geometry" />
        </mxCell>
        <mxCell id="xI0BXQAsPgEZDhIt_W3Y-48" value="" style="edgeStyle=orthogonalEdgeStyle;rounded=0;orthogonalLoop=1;jettySize=auto;html=1;" edge="1" parent="WIyWlLk6GJQsqaUBKTNV-1" source="xI0BXQAsPgEZDhIt_W3Y-45" target="xI0BXQAsPgEZDhIt_W3Y-47">
          <mxGeometry relative="1" as="geometry" />
        </mxCell>
        <mxCell id="xI0BXQAsPgEZDhIt_W3Y-45" value="recibes RESPUESTA de servidor" style="whiteSpace=wrap;html=1;rounded=1;" vertex="1" parent="WIyWlLk6GJQsqaUBKTNV-1">
          <mxGeometry x="170" y="420" width="120" height="60" as="geometry" />
        </mxCell>
        <mxCell id="xI0BXQAsPgEZDhIt_W3Y-52" style="edgeStyle=orthogonalEdgeStyle;rounded=0;orthogonalLoop=1;jettySize=auto;html=1;entryX=0;entryY=0.5;entryDx=0;entryDy=0;" edge="1" parent="WIyWlLk6GJQsqaUBKTNV-1" source="xI0BXQAsPgEZDhIt_W3Y-47" target="xI0BXQAsPgEZDhIt_W3Y-39">
          <mxGeometry relative="1" as="geometry">
            <Array as="points">
              <mxPoint x="120" y="590" />
              <mxPoint x="120" y="310" />
            </Array>
          </mxGeometry>
        </mxCell>
        <mxCell id="xI0BXQAsPgEZDhIt_W3Y-53" value="NO" style="edgeLabel;html=1;align=center;verticalAlign=middle;resizable=0;points=[];" vertex="1" connectable="0" parent="xI0BXQAsPgEZDhIt_W3Y-52">
          <mxGeometry x="-0.82" y="1" relative="1" as="geometry">
            <mxPoint as="offset" />
          </mxGeometry>
        </mxCell>
        <mxCell id="xI0BXQAsPgEZDhIt_W3Y-55" value="" style="edgeStyle=orthogonalEdgeStyle;rounded=0;orthogonalLoop=1;jettySize=auto;html=1;entryX=0.5;entryY=0;entryDx=0;entryDy=0;" edge="1" parent="WIyWlLk6GJQsqaUBKTNV-1" source="xI0BXQAsPgEZDhIt_W3Y-47" target="xI0BXQAsPgEZDhIt_W3Y-66">
          <mxGeometry relative="1" as="geometry">
            <mxPoint x="230" y="720" as="targetPoint" />
          </mxGeometry>
        </mxCell>
        <mxCell id="xI0BXQAsPgEZDhIt_W3Y-62" value="SÍ" style="edgeLabel;html=1;align=center;verticalAlign=middle;resizable=0;points=[];" vertex="1" connectable="0" parent="xI0BXQAsPgEZDhIt_W3Y-55">
          <mxGeometry x="-0.2667" y="-2" relative="1" as="geometry">
            <mxPoint as="offset" />
          </mxGeometry>
        </mxCell>
        <mxCell id="xI0BXQAsPgEZDhIt_W3Y-47" value="usuario válido?" style="rhombus;whiteSpace=wrap;html=1;rounded=1;" vertex="1" parent="WIyWlLk6GJQsqaUBKTNV-1">
          <mxGeometry x="190" y="550" width="80" height="80" as="geometry" />
        </mxCell>
        <mxCell id="xI0BXQAsPgEZDhIt_W3Y-61" value="" style="edgeStyle=orthogonalEdgeStyle;rounded=0;orthogonalLoop=1;jettySize=auto;html=1;exitX=0.5;exitY=1;exitDx=0;exitDy=0;" edge="1" parent="WIyWlLk6GJQsqaUBKTNV-1" source="xI0BXQAsPgEZDhIt_W3Y-66" target="xI0BXQAsPgEZDhIt_W3Y-60">
          <mxGeometry relative="1" as="geometry">
            <mxPoint x="230" y="750" as="sourcePoint" />
          </mxGeometry>
        </mxCell>
        <mxCell id="xI0BXQAsPgEZDhIt_W3Y-94" style="edgeStyle=orthogonalEdgeStyle;rounded=0;orthogonalLoop=1;jettySize=auto;html=1;entryX=0;entryY=0.5;entryDx=0;entryDy=0;" edge="1" parent="WIyWlLk6GJQsqaUBKTNV-1" source="xI0BXQAsPgEZDhIt_W3Y-60" target="xI0BXQAsPgEZDhIt_W3Y-91">
          <mxGeometry relative="1" as="geometry" />
        </mxCell>
        <mxCell id="xI0BXQAsPgEZDhIt_W3Y-60" value="enviar CONTRASEÑA a servidor usando CLAVE" style="whiteSpace=wrap;html=1;rounded=1;" vertex="1" parent="WIyWlLk6GJQsqaUBKTNV-1">
          <mxGeometry x="170" y="840" width="120" height="60" as="geometry" />
        </mxCell>
        <mxCell id="xI0BXQAsPgEZDhIt_W3Y-66" value="GENERAR CLAVE SIMÉTRICA" style="swimlane;whiteSpace=wrap;html=1;" vertex="1" collapsed="1" parent="WIyWlLk6GJQsqaUBKTNV-1">
          <mxGeometry x="125" y="720" width="210" height="30" as="geometry">
            <mxRectangle x="125" y="720" width="380" height="460" as="alternateBounds" />
          </mxGeometry>
        </mxCell>
        <mxCell id="xI0BXQAsPgEZDhIt_W3Y-68" value="generas CLAVE__SIMÉTRICA&lt;br&gt;encripta CLAVE_SIMETRICA&lt;br&gt;usando RESPUESTA&lt;br&gt;envías CLAVE_SIMÉTRICA encriptada" style="whiteSpace=wrap;html=1;rounded=1;" vertex="1" parent="xI0BXQAsPgEZDhIt_W3Y-66">
          <mxGeometry x="100" y="50" width="180" height="90" as="geometry" />
        </mxCell>
        <mxCell id="xI0BXQAsPgEZDhIt_W3Y-70" value="esperar a confirmación de servidor" style="whiteSpace=wrap;html=1;rounded=1;" vertex="1" parent="xI0BXQAsPgEZDhIt_W3Y-66">
          <mxGeometry x="130" y="190" width="120" height="60" as="geometry" />
        </mxCell>
        <mxCell id="xI0BXQAsPgEZDhIt_W3Y-67" value="" style="edgeStyle=orthogonalEdgeStyle;rounded=0;orthogonalLoop=1;jettySize=auto;html=1;" edge="1" parent="xI0BXQAsPgEZDhIt_W3Y-66" source="xI0BXQAsPgEZDhIt_W3Y-68" target="xI0BXQAsPgEZDhIt_W3Y-70">
          <mxGeometry relative="1" as="geometry" />
        </mxCell>
        <mxCell id="xI0BXQAsPgEZDhIt_W3Y-71" value="generar CONTRASEÑA" style="whiteSpace=wrap;html=1;rounded=1;" vertex="1" parent="xI0BXQAsPgEZDhIt_W3Y-66">
          <mxGeometry x="130" y="330" width="120" height="60" as="geometry" />
        </mxCell>
        <mxCell id="xI0BXQAsPgEZDhIt_W3Y-69" value="" style="edgeStyle=orthogonalEdgeStyle;rounded=0;orthogonalLoop=1;jettySize=auto;html=1;" edge="1" parent="xI0BXQAsPgEZDhIt_W3Y-66" source="xI0BXQAsPgEZDhIt_W3Y-70" target="xI0BXQAsPgEZDhIt_W3Y-71">
          <mxGeometry relative="1" as="geometry" />
        </mxCell>
        <mxCell id="xI0BXQAsPgEZDhIt_W3Y-84" value="" style="edgeStyle=orthogonalEdgeStyle;rounded=0;orthogonalLoop=1;jettySize=auto;html=1;" edge="1" parent="WIyWlLk6GJQsqaUBKTNV-1" source="xI0BXQAsPgEZDhIt_W3Y-73" target="xI0BXQAsPgEZDhIt_W3Y-83">
          <mxGeometry relative="1" as="geometry" />
        </mxCell>
        <mxCell id="xI0BXQAsPgEZDhIt_W3Y-73" value="GENERAR CLAVE SIMÉTRICA" style="swimlane;whiteSpace=wrap;html=1;" vertex="1" collapsed="1" parent="WIyWlLk6GJQsqaUBKTNV-1">
          <mxGeometry x="330" y="135" width="210" height="30" as="geometry">
            <mxRectangle x="400" y="740" width="380" height="460" as="alternateBounds" />
          </mxGeometry>
        </mxCell>
        <mxCell id="xI0BXQAsPgEZDhIt_W3Y-74" value="generas CLAVE__SIMÉTRICA&lt;br&gt;encripta CLAVE_SIMETRICA&lt;br&gt;usando RESPUESTA&lt;br&gt;envías CLAVE_SIMÉTRICA encriptada" style="whiteSpace=wrap;html=1;rounded=1;" vertex="1" parent="xI0BXQAsPgEZDhIt_W3Y-73">
          <mxGeometry x="100" y="50" width="180" height="90" as="geometry" />
        </mxCell>
        <mxCell id="xI0BXQAsPgEZDhIt_W3Y-75" value="esperar a confirmación de servidor" style="whiteSpace=wrap;html=1;rounded=1;" vertex="1" parent="xI0BXQAsPgEZDhIt_W3Y-73">
          <mxGeometry x="130" y="190" width="120" height="60" as="geometry" />
        </mxCell>
        <mxCell id="xI0BXQAsPgEZDhIt_W3Y-76" value="" style="edgeStyle=orthogonalEdgeStyle;rounded=0;orthogonalLoop=1;jettySize=auto;html=1;" edge="1" parent="xI0BXQAsPgEZDhIt_W3Y-73" source="xI0BXQAsPgEZDhIt_W3Y-74" target="xI0BXQAsPgEZDhIt_W3Y-75">
          <mxGeometry relative="1" as="geometry" />
        </mxCell>
        <mxCell id="xI0BXQAsPgEZDhIt_W3Y-77" value="generar CONTRASEÑA" style="whiteSpace=wrap;html=1;rounded=1;" vertex="1" parent="xI0BXQAsPgEZDhIt_W3Y-73">
          <mxGeometry x="130" y="330" width="120" height="60" as="geometry" />
        </mxCell>
        <mxCell id="xI0BXQAsPgEZDhIt_W3Y-78" value="" style="edgeStyle=orthogonalEdgeStyle;rounded=0;orthogonalLoop=1;jettySize=auto;html=1;" edge="1" parent="xI0BXQAsPgEZDhIt_W3Y-73" source="xI0BXQAsPgEZDhIt_W3Y-75" target="xI0BXQAsPgEZDhIt_W3Y-77">
          <mxGeometry relative="1" as="geometry" />
        </mxCell>
        <mxCell id="xI0BXQAsPgEZDhIt_W3Y-86" value="" style="edgeStyle=orthogonalEdgeStyle;rounded=0;orthogonalLoop=1;jettySize=auto;html=1;" edge="1" parent="WIyWlLk6GJQsqaUBKTNV-1" source="xI0BXQAsPgEZDhIt_W3Y-83" target="xI0BXQAsPgEZDhIt_W3Y-85">
          <mxGeometry relative="1" as="geometry" />
        </mxCell>
        <mxCell id="xI0BXQAsPgEZDhIt_W3Y-83" value="&lt;span style=&quot;font-weight: normal;&quot;&gt;introducir USUARIO y CONTRASEÑA&lt;/span&gt;" style="whiteSpace=wrap;html=1;fontStyle=1;startSize=23;" vertex="1" parent="WIyWlLk6GJQsqaUBKTNV-1">
          <mxGeometry x="665" y="120" width="120" height="60" as="geometry" />
        </mxCell>
        <mxCell id="xI0BXQAsPgEZDhIt_W3Y-88" value="" style="edgeStyle=orthogonalEdgeStyle;rounded=0;orthogonalLoop=1;jettySize=auto;html=1;" edge="1" parent="WIyWlLk6GJQsqaUBKTNV-1" source="xI0BXQAsPgEZDhIt_W3Y-85" target="xI0BXQAsPgEZDhIt_W3Y-87">
          <mxGeometry relative="1" as="geometry" />
        </mxCell>
        <mxCell id="xI0BXQAsPgEZDhIt_W3Y-85" value="&lt;span style=&quot;font-weight: normal;&quot;&gt;enviar USUARIO y CONTRASEÑA al servidor&lt;/span&gt;" style="whiteSpace=wrap;html=1;fontStyle=1;startSize=23;" vertex="1" parent="WIyWlLk6GJQsqaUBKTNV-1">
          <mxGeometry x="665" y="260" width="120" height="60" as="geometry" />
        </mxCell>
        <mxCell id="xI0BXQAsPgEZDhIt_W3Y-89" style="edgeStyle=orthogonalEdgeStyle;rounded=0;orthogonalLoop=1;jettySize=auto;html=1;entryX=1;entryY=0.5;entryDx=0;entryDy=0;" edge="1" parent="WIyWlLk6GJQsqaUBKTNV-1" source="xI0BXQAsPgEZDhIt_W3Y-87" target="xI0BXQAsPgEZDhIt_W3Y-83">
          <mxGeometry relative="1" as="geometry">
            <Array as="points">
              <mxPoint x="810" y="430" />
              <mxPoint x="810" y="150" />
            </Array>
          </mxGeometry>
        </mxCell>
        <mxCell id="xI0BXQAsPgEZDhIt_W3Y-90" value="NO" style="edgeLabel;html=1;align=center;verticalAlign=middle;resizable=0;points=[];" vertex="1" connectable="0" parent="xI0BXQAsPgEZDhIt_W3Y-89">
          <mxGeometry x="-0.8971" relative="1" as="geometry">
            <mxPoint as="offset" />
          </mxGeometry>
        </mxCell>
        <mxCell id="xI0BXQAsPgEZDhIt_W3Y-92" value="" style="edgeStyle=orthogonalEdgeStyle;rounded=0;orthogonalLoop=1;jettySize=auto;html=1;" edge="1" parent="WIyWlLk6GJQsqaUBKTNV-1" source="xI0BXQAsPgEZDhIt_W3Y-87" target="xI0BXQAsPgEZDhIt_W3Y-91">
          <mxGeometry relative="1" as="geometry" />
        </mxCell>
        <mxCell id="xI0BXQAsPgEZDhIt_W3Y-93" value="SÍ" style="edgeLabel;html=1;align=center;verticalAlign=middle;resizable=0;points=[];" vertex="1" connectable="0" parent="xI0BXQAsPgEZDhIt_W3Y-92">
          <mxGeometry x="-0.0667" y="-3" relative="1" as="geometry">
            <mxPoint as="offset" />
          </mxGeometry>
        </mxCell>
        <mxCell id="xI0BXQAsPgEZDhIt_W3Y-87" value="&lt;span style=&quot;font-weight: 400;&quot;&gt;servidor acepta?&lt;/span&gt;" style="rhombus;whiteSpace=wrap;html=1;fontStyle=1;startSize=23;" vertex="1" parent="WIyWlLk6GJQsqaUBKTNV-1">
          <mxGeometry x="685" y="390" width="80" height="80" as="geometry" />
        </mxCell>
        <mxCell id="xI0BXQAsPgEZDhIt_W3Y-91" value="&lt;span style=&quot;font-weight: normal;&quot;&gt;SESIÓN INICIADA&lt;/span&gt;" style="whiteSpace=wrap;html=1;fontStyle=1;startSize=23;" vertex="1" parent="WIyWlLk6GJQsqaUBKTNV-1">
          <mxGeometry x="665" y="590" width="120" height="60" as="geometry" />
        </mxCell>
      </root>
    </mxGraphModel>
  </diagram>
</mxfile>
